<svg viewBox="0 0 554 255" fill="none" xmlns="http://www.w3.org/2000/svg">
  <path d="M173.5 41c4.8-.4 4.3-6.2 3.5-9 0-2.4-4.3-3-6.5-3h-49c-1.7-.5-4.9-2.5-4.5-6.5.4-4 3.2-5.7 4.5-6h51c4.2-4 15.6-12.5 28-14.5a96.3 96.3 0 0140 2.5c13.5 3 21 11.5 28 17.5 5.6 4.8 13.3 18 16.5 24 1.5-6 11.5-19 17-25s16-13 24.5-16 28-6 44-2 25 11.5 33 20.5 14.5 26 16.5 32c1.6 4.8 5.3 6 7 6h25c1.7.2 5 1.6 5 6s-3.3 5.8-5 6h-22.5c-4.8 0-6.3 5-6.5 7.5-1 7.5-3.6 24.3-6 31.5-3 9-18.5 34-22 40-2.8 4.8 1.2 6.7 3.5 7h31c1.5 0 4.5 1 4.5 5s-3 5.7-4.5 6H338c-5 0-9 1.5-9 7 0 4.4 6 5.8 9 6h40c2.2 0 6.5 1.1 6.5 5.5s-4.3 6.5-6.5 7h-24.5L289 250c-8 7.6-14.3 3.2-16.5 0L200 182c-7.2-6.8-2.3-10.5 1-11.5h23c1.3-.2 4-1.4 4-5s-2.7-6.2-4-7c-9.3.2-29.7.4-36.5 0-6.8-.4-10.5-2.8-11.5-4l-17.5-26H111c-2 0-6-1.1-6-5.5s4-6.2 6-6.5h36c1.7 0 5-1.1 5-5.5s-3.3-6.5-5-7h-17.5c-1.7-.3-5-1.9-5-5.5s3.3-5.5 5-6H141c4-.4 5.7-4.5 6-6.5V61.5c0-16.8 7.7-20.7 11.5-20.5 3 .2 10.2.4 15 0zM101 91.5H87c-2.5 0-4.5 3-4.5 7 0 3.2 3 5 4.5 5.5l14-.5c1.3-.5 3.9-2.5 3.5-6.5-.4-4-2.5-5.3-3.5-5.5zM61 33.5H37c-2 .5-5.9 2.4-5.5 6 .4 3.6 3.8 5.5 5.5 6h24c1.3-.5 4-2.4 4-6s-2.7-5.5-4-6zM20 60c0-5.6-6.3-6.7-9.5-6.5-3.2 0-9.4 1.3-9 6.5.4 5.2 6.2 6.2 9 6 3.2.3 9.5-.4 9.5-6z" fill="#C51104"/>
  <path d="M160 158.5h-27.5c-3 0-5 3.5-5 7 0 2.8 2.7 4.5 4 5h27c2.2.3 6.5-.2 6.5-5s-3.3-6.7-5-7z" fill="#C51104"/>
  <path d="M173.5 41c4.8-.4 4.3-6.2 3.5-9 0-2.4-4.3-3-6.5-3h-49c-1.7-.5-4.9-2.5-4.5-6.5.4-4 3.2-5.7 4.5-6h51c4.2-4 15.6-12.5 28-14.5a96.3 96.3 0 0140 2.5c13.5 3 21 11.5 28 17.5 5.6 4.8 13.3 18 16.5 24 1.5-6 11.5-19 17-25s16-13 24.5-16 28-6 44-2 25 11.5 33 20.5 14.5 26 16.5 32c1.6 4.8 5.3 6 7 6h25c1.7.2 5 1.6 5 6s-3.3 5.8-5 6h-22.5c-4.8 0-6.3 5-6.5 7.5-1 7.5-3.6 24.3-6 31.5-3 9-18.5 34-22 40-2.8 4.8 1.2 6.7 3.5 7h31c1.5 0 4.5 1 4.5 5s-3 5.7-4.5 6H338c-5 0-9 1.5-9 7 0 4.4 6 5.8 9 6h40c2.2 0 6.5 1.1 6.5 5.5s-4.3 6.5-6.5 7h-24.5L289 250c-8 7.6-14.3 3.2-16.5 0L200 182c-7.2-6.8-2.3-10.5 1-11.5h23c1.3-.2 4-1.4 4-5s-2.7-6.2-4-7c-9.3.2-29.7.4-36.5 0-6.8-.4-10.5-2.8-11.5-4l-17.5-26H111c-2 0-6-1.1-6-5.5s4-6.2 6-6.5h36c1.7 0 5-1.1 5-5.5s-3.3-6.5-5-7h-17.5c-1.7-.3-5-1.9-5-5.5s3.3-5.5 5-6H141c4-.4 5.7-4.5 6-6.5V61.5c0-16.8 7.7-20.7 11.5-20.5 3 .2 10.2.4 15 0zM101 91.5H87c-2.5 0-4.5 3-4.5 7 0 3.2 3 5 4.5 5.5l14-.5c1.3-.5 3.9-2.5 3.5-6.5-.4-4-2.5-5.3-3.5-5.5zM61 33.5H37c-2 .5-5.9 2.4-5.5 6 .4 3.6 3.8 5.5 5.5 6h24c1.3-.5 4-2.4 4-6s-2.7-5.5-4-6zM20 60c0-5.6-6.3-6.7-9.5-6.5-3.2 0-9.4 1.3-9 6.5.4 5.2 6.2 6.2 9 6 3.2.3 9.5-.4 9.5-6z" stroke="#000"/>
  <path d="M160 158.5h-27.5c-3 0-5 3.5-5 7 0 2.8 2.7 4.5 4 5h27c2.2.3 6.5-.2 6.5-5s-3.3-6.7-5-7z" stroke="#000"/>
  <path d="M117 22.5c0 5.2 4.3 6.2 6.5 6h49c5.6 1.6 6 8 5.5 11l-7.5 10c-2 5.6 2.5 8.3 5 9H204c2 .8 6 3.6 6 8s-4 5.8-6 6h-26c-7.6 0-8.8 6.3-8.5 9.5l2 12.5c1.2 7.6 9.2 9.5 13 9.5 6.8-.8 9.2 3 9.5 5 .5 2.3.1 7.1-5.5 7.5-5.6.4-5 4.5-4 6.5l21 35.5a144 144 0 0121.5.5c2.4.8 3.7 3.3 4 4.5.3 2.2-.4 7.3-6 10.5s-3.7 7.7-2 9.5l11.5 11.5c11.3 16.8 35.1 51.7 39.5 56.5 4.4 4.8 10.8 2 13.5 0l66-55.5H378c2.2-.3 6.5-2.1 6.5-6.5s-4.3-5.8-6.5-6h-38c-3.7.3-11-.5-11-6.5s8.3-6.8 12.5-6.5H429c1.7-.3 5-2 5-6s-3.3-5-5-5h-30.5c-5.2 0-4.8-4.3-4-6.5 12.5-18.5 12.5-20.5 19-33s8.5-30.5 9-38.5c.4-6.4 4.2-8 6-8h23c1.8.2 5.5-.7 5.5-5.5s-3.7-6.3-5.5-6.5H427c-4 0-6-3-6.5-4.5-8-27.2-23-41-29.5-44.5C380.6 3.3 360.3 1 351.5 1c-10.5.5-23 .5-41 13A77 77 0 00285 46c-14-24.5-16.5-24.5-30-35C244.2 2.6 222.2.8 212.5 1a66.2 66.2 0 00-40 15.5h-49c-2.2-.2-6.5.8-6.5 6zM476.5 92.5c0-4.8-6-5.7-9-5.5-3.2 0-9.4 1.1-9 5.5.5 5.5 4.5 6.5 9 6.5s9-.5 9-6.5zM511.5 134H463c-2 .7-5.9 3-5.5 7 .4 4 3.8 5.3 5.5 5.5h22.5c1.5.7 4.5 2.9 4.5 6.5s-3 5.8-4.5 6.5h-11c-1.8.3-5.4 2-5 6 .4 4 3.5 5.3 5 5.5H547c2.2.3 6.5-.3 6.5-5.5a6 6 0 00-6-6.5h-45c-1.8.2-5.5-.8-5.5-6s3.7-7.2 5.5-7.5h9c1.8.2 5.5-.7 5.5-5.5s-3.7-6-5.5-6zM441.5 183.5h-19c-1.8 0-5.5 1.2-5.5 6s3.7 6.3 5.5 6.5h19c1.7-.3 5-2.1 5-6.5s-3.3-5.8-5-6z" fill="#FE8E86"/>
  <path d="M117 22.5c0 5.2 4.3 6.2 6.5 6h49c5.6 1.6 6 8 5.5 11l-7.5 10c-2 5.6 2.5 8.3 5 9H204c2 .8 6 3.6 6 8s-4 5.8-6 6h-26c-7.6 0-8.8 6.3-8.5 9.5l2 12.5c1.2 7.6 9.2 9.5 13 9.5 6.8-.8 9.2 3 9.5 5 .5 2.3.1 7.1-5.5 7.5-5.6.4-5 4.5-4 6.5l21 35.5a144 144 0 0121.5.5c2.4.8 3.7 3.3 4 4.5.3 2.2-.4 7.3-6 10.5s-3.7 7.7-2 9.5l11.5 11.5c11.3 16.8 35.1 51.7 39.5 56.5 4.4 4.8 10.8 2 13.5 0l66-55.5H378c2.2-.3 6.5-2.1 6.5-6.5s-4.3-5.8-6.5-6h-38c-3.7.3-11-.5-11-6.5s8.3-6.8 12.5-6.5H429c1.7-.3 5-2 5-6s-3.3-5-5-5h-30.5c-5.2 0-4.8-4.3-4-6.5 12.5-18.5 12.5-20.5 19-33s8.5-30.5 9-38.5c.4-6.4 4.2-8 6-8h23c1.8.2 5.5-.7 5.5-5.5s-3.7-6.3-5.5-6.5H427c-4 0-6-3-6.5-4.5-8-27.2-23-41-29.5-44.5C380.6 3.3 360.3 1 351.5 1c-10.5.5-23 .5-41 13A77 77 0 00285 46c-14-24.5-16.5-24.5-30-35C244.2 2.6 222.2.8 212.5 1a66.2 66.2 0 00-40 15.5h-49c-2.2-.2-6.5.8-6.5 6zM476.5 92.5c0-4.8-6-5.7-9-5.5-3.2 0-9.4 1.1-9 5.5.5 5.5 4.5 6.5 9 6.5s9-.5 9-6.5zM511.5 134H463c-2 .7-5.9 3-5.5 7 .4 4 3.8 5.3 5.5 5.5h22.5c1.5.7 4.5 2.9 4.5 6.5s-3 5.8-4.5 6.5h-11c-1.8.3-5.4 2-5 6 .4 4 3.5 5.3 5 5.5H547c2.2.3 6.5-.3 6.5-5.5a6 6 0 00-6-6.5h-45c-1.8.2-5.5-.8-5.5-6s3.7-7.2 5.5-7.5h9c1.8.2 5.5-.7 5.5-5.5s-3.7-6-5.5-6zM441.5 183.5h-19c-1.8 0-5.5 1.2-5.5 6s3.7 6.3 5.5 6.5h19c1.7-.3 5-2.1 5-6.5s-3.3-5.8-5-6z" stroke="#000"/>
  <path d="M313.5 19.5A51 51 0 00285 46c-11-14-23.5-22.5-29-27S237.5 7 214.5 6.5a65.1 65.1 0 00-40 14h-51c-2.5 0-4.5 1-4.5 3.5 0 2 3 3.8 4.5 4.5h48c3.6 0 5.8 3.7 6.5 5.5.8 2.8.3 5.2 0 6l-7.5 8.5c-2.4 6 2 9.5 4.5 10.5h29c2 .3 6 2.2 6 7s-4 6.3-6 6.5h-26c-8 0-9 6.3-8.5 9.5.3 2.5 1.2 8.6 2 13 1 5.5 4.5 9 13.5 9 7.2 0 9 3.7 9 5.5.3 2.3-.4 7-6 7s-4.3 5-3 7.5l20.5 34.5h19c5.6 0 6.7 5 6.5 7.5 0 1.7-1.3 5.7-6.5 8.5s-3.2 7.2-1.5 9c15.3 15.5 46.9 47.2 50.5 50a7.4 7.4 0 009 0L329 191v-14c0-6 6.3-6.5 9.5-6 4.2-.8 14.3-3.7 21.5-8.5 9-6 14.5-15.5 18.5-21.5 3.2-4.8-2.7-6-6-6-2-.2-6-1.7-6-6.5s4-6.3 6-6.5h14c1.5 0 4.5-.8 4.5-4s-3-4-4.5-4h-37c-2.5.2-7.5-.9-7.5-6.5s5-6.7 7.5-6.5H388c6 0 10.5-2 11-14 .4-9.6-6.2-12.7-9.5-13h-16c1 0-8 1-8-6 0-5.6 4.7-7.3 7-7.5H391c2.7-1.7 6.1-8.7-1.5-23.5S363.3 17.2 355 16.5c-7.3-1-25.9-1.8-41.5 3z" fill="#FE251B" stroke="#000"/>
  <path d="M213 28.5h-11.5c-1.7.5-5 2.4-5 6s3.3 5.5 5 6H213c1.5-.5 4.5-2.4 4.5-6s-3-5.5-4.5-6zM394 60.5h-22.5c-2 .8-6 3.5-6 7.5s4 5.7 6 6H394c1.3-.5 4-2.6 4-7s-2.7-6.2-4-6.5zM320 177.5c0-5.6-5.7-6.7-8.5-6.5-2.5 0-7.6 1.3-8 6.5-.4 5.2 5.2 5.8 8 5.5 2.8.5 8.5.1 8.5-5.5z" fill="#fff"/>
  <path d="M213 28.5h-11.5c-1.7.5-5 2.4-5 6s3.3 5.5 5 6H213c1.5-.5 4.5-2.4 4.5-6s-3-5.5-4.5-6zM394 60.5h-22.5c-2 .8-6 3.5-6 7.5s4 5.7 6 6H394c1.3-.5 4-2.6 4-7s-2.7-6.2-4-6.5zM320 177.5c0-5.6-5.7-6.7-8.5-6.5-2.5 0-7.6 1.3-8 6.5-.4 5.2 5.2 5.8 8 5.5 2.8.5 8.5.1 8.5-5.5z" stroke="#000"/>
</svg>
